name kv03_filtered_grf.mot
datacolumns 37
datarows 11
range 0.280000 0.285000
endheader
time	1_ground_force_vx	1_ground_force_vy	1_ground_force_vz	1_ground_force_px	1_ground_force_py	1_ground_force_pz	1_ground_torque_x	1_ground_torque_y	1_ground_torque_z	2_ground_force_vx	2_ground_force_vy	2_ground_force_vz	2_ground_force_px	2_ground_force_py	2_ground_force_pz	2_ground_torque_x	2_ground_torque_y	2_ground_torque_z	3_ground_force_vx	3_ground_force_vy	3_ground_force_vz	3_ground_force_px	3_ground_force_py	3_ground_force_pz	3_ground_torque_x	3_ground_torque_y	3_ground_torque_z	4_ground_force_vx	4_ground_force_vy	4_ground_force_vz	4_ground_force_px	4_ground_force_py	4_ground_force_pz	4_ground_torque_x	4_ground_torque_y	4_ground_torque_z
            0.280000	          -89.805354	         1082.761737	          194.698779	            0.104828	            0.000000	            0.217588	           -0.935881	           11.283689	            2.028997	           94.190672	         1028.836618	          201.502739	           -0.176340	            0.000000	            0.222497	            3.788537	           41.381860	            8.104842	          -16.275650	           48.263830	           18.702780	            0.387430	            0.970053	            1.075152	            0.140403	           -0.416351	           -0.161341	           10.985389	           58.455128	            0.970472	           -0.368415	            0.969083	            1.108387	            2.224016	           -0.203700	            1.445731
            0.280500	          -90.029568	         1081.944869	          194.529960	            0.104865	            0.000000	            0.217581	           -0.939718	           11.293215	            2.030481	           94.349104	         1028.166112	          201.078946	           -0.176356	            0.000000	            0.222539	            3.794148	           41.346593	            8.086173	          -16.832232	           47.245800	           19.141855	            0.387425	            0.970051	            1.075131	            0.138541	           -0.388865	           -0.157550	           11.115983	           58.620920	            1.758257	           -0.368419	            0.969057	            1.108399	            2.241844	           -0.246097	            1.457120
            0.281000	          -90.251774	         1081.105067	          194.344464	            0.104904	            0.000000	            0.217574	           -0.943535	           11.302388	            2.031770	           94.511006	         1027.482652	          200.639970	           -0.176373	            0.000000	            0.222581	            3.799804	           41.309819	            8.066706	          -17.399538	           46.206471	           19.555193	            0.387420	            0.970050	            1.075110	            0.136331	           -0.362043	           -0.153221	           11.254121	           58.696529	            2.575508	           -0.368423	            0.969032	            1.108411	            2.256823	           -0.290461	            1.466353
            0.281500	          -90.471803	         1080.242705	          194.142462	            0.104942	            0.000000	            0.217569	           -0.947327	           11.311183	            2.032859	           94.676160	         1026.786544	          200.186107	           -0.176389	            0.000000	            0.222624	            3.805495	           41.271543	            8.046453	          -17.978496	           45.148063	           19.942403	            0.387415	            0.970048	            1.075089	            0.133784	           -0.335962	           -0.148398	           11.401562	           58.682306	            3.420809	           -0.368427	            0.969007	            1.108423	            2.268949	           -0.336778	            1.473403
            0.282000	          -90.689482	         1079.358142	          193.924109	            0.104982	            0.000000	            0.217564	           -0.951090	           11.319580	            2.033745	           94.844341	         1026.078075	          199.717650	           -0.176406	            0.000000	            0.222669	            3.811211	           41.231768	            8.025424	          -18.570068	           44.072730	           20.303209	            0.387409	            0.970047	            1.075068	            0.130912	           -0.310697	           -0.143130	           11.560116	           58.578948	            4.292631	           -0.368431	            0.968982	            1.108435	            2.278226	           -0.385031	            1.478256
            0.282500	          -90.904632	         1078.451719	          193.689551	            0.105021	            0.000000	            0.217561	           -0.954820	           11.327555	            2.034425	           95.015311	         1025.357513	          199.234883	           -0.176423	            0.000000	            0.222714	            3.816940	           41.190495	            8.003631	          -19.175244	           42.982554	           20.637449	            0.387404	            0.970045	            1.075048	            0.127730	           -0.286314	           -0.137470	           11.731630	           58.387480	            5.189337	           -0.368435	            0.968957	            1.108447	            2.284669	           -0.435200	            1.480901
            0.283000	          -91.117070	         1077.523762	          193.438925	            0.105061	            0.000000	            0.217559	           -0.958513	           11.335089	            2.034895	           95.188828	         1024.625107	          198.738086	           -0.176440	            0.000000	            0.222760	            3.822670	           41.147724	            7.981085	          -19.793173	           41.880259	           20.945392	            0.387395	            0.970046	            1.075030	            0.124242	           -0.262882	           -0.131474	           11.921029	           58.108420	            6.111147	           -0.368442	            0.968931	            1.108457	            2.288252	           -0.487427	            1.481359
            0.283500	          -91.326610	         1076.574584	          193.172356	            0.105101	            0.000000	            0.217558	           -0.962164	           11.342161	            2.035151	           95.364641	         1023.881091	          198.227534	           -0.176457	            0.000000	            0.222806	            3.828390	           41.103453	            7.957795	          -20.426780	           40.767069	           21.226877	            0.387385	            0.970047	            1.075012	            0.120481	           -0.240452	           -0.125200	           12.127091	           57.744170	            7.054262	           -0.368449	            0.968906	            1.108467	            2.289056	           -0.541513	            1.479607
            0.284000	          -91.533060	         1075.604487	          192.889963	            0.105142	            0.000000	            0.217558	           -0.965770	           11.348753	            2.035191	           95.542491	         1023.125678	          197.703494	           -0.176474	            0.000000	            0.222854	            3.834087	           41.057679	            7.933773	          -21.077113	           39.644802	           21.482093	            0.387376	            0.970048	            1.074994	            0.116472	           -0.219077	           -0.118710	           12.351703	           57.296668	            8.016759	           -0.368455	            0.968880	            1.108477	            2.287123	           -0.597423	            1.475653
            0.284500	          -91.736228	         1074.613763	          192.591857	            0.105183	            0.000000	            0.217559	           -0.969326	           11.354845	            2.035011	           95.722112	         1022.359066	          197.166228	           -0.176492	            0.000000	            0.222902	            3.839749	           41.010396	            7.909027	          -21.745225	           38.515181	           21.711339	            0.387367	            0.970049	            1.074976	            0.112241	           -0.198802	           -0.112066	           12.596748	           56.768120	            8.996641	           -0.368462	            0.968855	            1.108487	            2.282504	           -0.655118	            1.469514
            0.285000	          -91.935917	         1073.602693	          192.278143	            0.105224	            0.000000	            0.217561	           -0.972828	           11.360420	            2.034608	           95.903235	         1021.581435	          196.615992	           -0.176509	            0.000000	            0.222951	            3.845361	           40.961599	            7.883567	          -22.432172	           37.379827	           21.915029	            0.387358	            0.970050	            1.074958	            0.107821	           -0.179667	           -0.105335	           12.864095	           56.160985	            9.991841	           -0.368469	            0.968829	            1.108498	            2.275259	           -0.714555	            1.461210
